<svg width="410" height="76" viewBox="0 0 410 76" fill="none" xmlns="http://www.w3.org/2000/svg">
<path d="M49.7578 15.8691H32.1797V75H17.7754V15.8691H0.490234V3.90625H49.7578V15.8691ZM74.2207 75C73.8301 74.1862 73.4395 72.819 73.0488 70.8984C70.5749 74.2839 67.222 75.9766 62.9902 75.9766C58.5632 75.9766 54.8848 74.5117 51.9551 71.582C49.0579 68.6523 47.6094 64.86 47.6094 60.2051C47.6094 54.6712 49.3672 50.3906 52.8828 47.3633C56.431 44.3359 61.5254 42.7897 68.166 42.7246H72.3652V38.4766C72.3652 36.1003 71.9583 34.4238 71.1445 33.4473C70.3307 32.4707 69.1426 31.9824 67.5801 31.9824C64.1296 31.9824 62.4043 34.0007 62.4043 38.0371H48.5859C48.5859 33.1543 50.4089 29.1341 54.0547 25.9766C57.7331 22.7865 62.3717 21.1914 67.9707 21.1914C73.765 21.1914 78.2409 22.7051 81.3984 25.7324C84.5885 28.7272 86.1836 33.0241 86.1836 38.623V63.4766C86.2487 68.0339 86.8997 71.5983 88.1367 74.1699V75H74.2207ZM66.0664 65.1367C67.5964 65.1367 68.8984 64.8275 69.9727 64.209C71.0469 63.5905 71.8444 62.8581 72.3652 62.0117V51.0254H69.0449C66.7012 51.0254 64.8457 51.7741 63.4785 53.2715C62.1439 54.7689 61.4766 56.7708 61.4766 59.2773C61.4766 63.1836 63.0065 65.1367 66.0664 65.1367ZM119.582 60.8398C119.582 59.668 119.012 58.5938 117.873 57.6172C116.766 56.6081 114.276 55.2572 110.402 53.5645C104.706 51.2533 100.783 48.8607 98.6348 46.3867C96.5189 43.9128 95.4609 40.8366 95.4609 37.1582C95.4609 32.5358 97.1211 28.7272 100.441 25.7324C103.794 22.7051 108.221 21.1914 113.723 21.1914C119.517 21.1914 124.156 22.6888 127.639 25.6836C131.122 28.6784 132.863 32.6986 132.863 37.7441H119.045C119.045 33.4473 117.255 31.2988 113.674 31.2988C112.209 31.2988 111.005 31.7546 110.061 32.666C109.117 33.5775 108.645 34.847 108.645 36.4746C108.645 37.6465 109.165 38.6882 110.207 39.5996C111.249 40.4785 113.706 41.748 117.58 43.4082C123.212 45.4915 127.183 47.819 129.494 50.3906C131.838 52.9297 133.01 56.2337 133.01 60.3027C133.01 65.0228 131.236 68.8151 127.688 71.6797C124.139 74.5443 119.484 75.9766 113.723 75.9766C109.849 75.9766 106.431 75.2279 103.469 73.7305C100.507 72.2005 98.179 70.0846 96.4863 67.3828C94.8262 64.681 93.9961 61.7676 93.9961 58.6426H107.131C107.196 61.0514 107.749 62.8581 108.791 64.0625C109.865 65.2669 111.607 65.8691 114.016 65.8691C117.727 65.8691 119.582 64.1927 119.582 60.8398ZM159.133 54.6387L155.422 58.7891V75H141.604V0H155.422V40.5273L157.131 37.9883L166.701 22.168H183.156L167.824 43.9453L184.621 75H168.801L159.133 54.6387ZM212.844 60.8398C212.844 59.668 212.274 58.5938 211.135 57.6172C210.028 56.6081 207.538 55.2572 203.664 53.5645C197.967 51.2533 194.045 48.8607 191.896 46.3867C189.781 43.9128 188.723 40.8366 188.723 37.1582C188.723 32.5358 190.383 28.7272 193.703 25.7324C197.056 22.7051 201.483 21.1914 206.984 21.1914C212.779 21.1914 217.417 22.6888 220.9 25.6836C224.383 28.6784 226.125 32.6986 226.125 37.7441H212.307C212.307 33.4473 210.516 31.2988 206.936 31.2988C205.471 31.2988 204.266 31.7546 203.322 32.666C202.378 33.5775 201.906 34.847 201.906 36.4746C201.906 37.6465 202.427 38.6882 203.469 39.5996C204.51 40.4785 206.968 41.748 210.842 43.4082C216.473 45.4915 220.445 47.819 222.756 50.3906C225.1 52.9297 226.271 56.2337 226.271 60.3027C226.271 65.0228 224.497 68.8151 220.949 71.6797C217.401 74.5443 212.746 75.9766 206.984 75.9766C203.111 75.9766 199.693 75.2279 196.73 73.7305C193.768 72.2005 191.441 70.0846 189.748 67.3828C188.088 64.681 187.258 61.7676 187.258 58.6426H200.393C200.458 61.0514 201.011 62.8581 202.053 64.0625C203.127 65.2669 204.868 65.8691 207.277 65.8691C210.988 65.8691 212.844 64.1927 212.844 60.8398ZM235.549 75V3.90625H254.348C262.648 3.90625 269.257 6.54297 274.172 11.8164C279.12 17.0898 281.643 24.3164 281.74 33.4961V45.0195C281.74 54.362 279.266 61.7025 274.318 67.041C269.403 72.347 262.616 75 253.957 75H235.549ZM249.904 15.8691V63.0859H254.201C258.986 63.0859 262.355 61.8327 264.309 59.3262C266.262 56.7871 267.287 52.4251 267.385 46.2402V33.8867C267.385 27.2461 266.457 22.6237 264.602 20.0195C262.746 17.3828 259.589 15.9993 255.129 15.8691H249.904ZM316.506 75C316.115 74.1862 315.725 72.819 315.334 70.8984C312.86 74.2839 309.507 75.9766 305.275 75.9766C300.848 75.9766 297.17 74.5117 294.24 71.582C291.343 68.6523 289.895 64.86 289.895 60.2051C289.895 54.6712 291.652 50.3906 295.168 47.3633C298.716 44.3359 303.811 42.7897 310.451 42.7246H314.65V38.4766C314.65 36.1003 314.243 34.4238 313.43 33.4473C312.616 32.4707 311.428 31.9824 309.865 31.9824C306.415 31.9824 304.689 34.0007 304.689 38.0371H290.871C290.871 33.1543 292.694 29.1341 296.34 25.9766C300.018 22.7865 304.657 21.1914 310.256 21.1914C316.05 21.1914 320.526 22.7051 323.684 25.7324C326.874 28.7272 328.469 33.0241 328.469 38.623V63.4766C328.534 68.0339 329.185 71.5983 330.422 74.1699V75H316.506ZM308.352 65.1367C309.882 65.1367 311.184 64.8275 312.258 64.209C313.332 63.5905 314.13 62.8581 314.65 62.0117V51.0254H311.33C308.986 51.0254 307.131 51.7741 305.764 53.2715C304.429 54.7689 303.762 56.7708 303.762 59.2773C303.762 63.1836 305.292 65.1367 308.352 65.1367ZM354.543 9.17969V22.168H361.623V32.5684H354.543V58.7891C354.543 60.8724 354.82 62.3047 355.373 63.0859C355.959 63.8672 357.066 64.2578 358.693 64.2578C360.028 64.2578 361.118 64.1439 361.965 63.916L361.867 74.6582C359.523 75.5371 356.984 75.9766 354.25 75.9766C345.331 75.9766 340.822 70.8659 340.725 60.6445V32.5684H334.621V22.168H340.725V9.17969H354.543ZM390.578 75.9766C383.482 75.9766 377.948 73.8607 373.977 69.6289C370.005 65.3971 368.02 59.3424 368.02 51.4648V47.2656C368.02 38.9323 369.842 32.5033 373.488 27.9785C377.134 23.4538 382.359 21.1914 389.162 21.1914C395.803 21.1914 400.799 23.3236 404.152 27.5879C407.505 31.8197 409.214 38.1022 409.279 46.4355V53.2227H381.789C381.984 57.1289 382.847 59.9935 384.377 61.8164C385.907 63.6068 388.267 64.502 391.457 64.502C396.079 64.502 399.937 62.9232 403.029 59.7656L408.449 68.1152C406.757 70.459 404.299 72.3633 401.076 73.8281C397.854 75.2604 394.354 75.9766 390.578 75.9766ZM381.887 43.5547H395.705V42.2852C395.64 39.1276 395.119 36.735 394.143 35.1074C393.166 33.4798 391.473 32.666 389.064 32.666C386.656 32.666 384.898 33.5286 383.791 35.2539C382.717 36.9792 382.082 39.7461 381.887 43.5547Z" fill="white"/>
</svg>
